<svg width="863" height="984" viewBox="0 0 863 984" fill="none" xmlns="http://www.w3.org/2000/svg">
<path d="M184.564 164.247C120.005 106.794 160.643 0 247.065 0H702C790.918 0 863 72.0822 863 161V711.082C863 749.909 831.524 781.385 792.697 781.385H743.996C689.356 781.385 667.71 852.112 712.991 882.693V882.693C758.272 913.273 736.627 984 681.986 984H161C72.0822 984 1.34139e-05 911.918 2.99608e-05 823L0.000116598 357.44C0.000129429 288.492 55.8938 232.598 124.842 232.598H158.555C194.519 232.598 211.431 188.156 184.564 164.247V164.247Z" fill="white"/>
</svg>
