<?xml version="1.0" encoding="UTF-8"?>
<!DOCTYPE svg PUBLIC "-//W3C//DTD SVG 1.1//EN" "http://www.w3.org/Graphics/SVG/1.1/DTD/svg11.dtd">
<!-- Creator: CorelDRAW -->
<svg xmlns="http://www.w3.org/2000/svg" xml:space="preserve" width="90.3314mm" height="98.9611mm" version="1.1" shape-rendering="geometricPrecision" text-rendering="geometricPrecision" image-rendering="optimizeQuality" fill-rule="evenodd" clip-rule="evenodd"
viewBox="0 0 9033.14 9896.11"
 xmlns:xlink="http://www.w3.org/1999/xlink"
 xmlns:xodm="http://www.corel.com/coreldraw/odm/2003">
 <g id="Layer_x0020_1">
  <metadata id="CorelCorpID_0Corel-Layer"/>
  <g id="_2128409899440">
   <path fill="#FEFEFE" d="M4539.89 565.12c268.72,-666.8 1060.3,-762.99 1464.66,-184.33 210.52,301.2 215.45,875.33 -100.99,1587.22 924.76,828.07 1795.89,1445.35 2392.77,2119.79 258.65,292.25 457.59,530.45 650.16,1090.97 169.73,494 113.92,1512.96 -382.24,1736.02 -392.96,180.08 -951,-291.25 -414.45,-611.63 201.98,-140.88 493.86,107.64 614.66,-55.54 55.94,-75.57 86.92,-180.85 84.71,-290.66 -78.97,-779.82 -926.31,-1410.08 -1218.64,-1678.44 -2869.95,-2218.3 -3346.76,-3031.17 -3090.64,-3713.4zm523.34 57.8c22.52,-558.57 555.14,-665.22 819.75,-156.93 94.21,180.99 114.47,245.53 117.32,454.88 5.83,428.01 -89.37,709.04 -231.1,922.41 -211.75,-172.76 -374.69,-399.52 -537.41,-662.42 -106.42,-171.9 -176.79,-353.93 -168.56,-557.94z"/>
   <path fill="#FEFEFE" d="M4036.21 9319.69c-335.7,741.41 -1072.97,733.85 -1464.66,170.26 -198.99,-286.31 -185.11,-919.73 109.49,-1580.94 -924.77,-764.85 -1455.93,-1157.67 -2052.59,-1780.4 -258.46,-269.73 -423.9,-520.82 -569.34,-1053.62 -123.28,-451.59 -83.94,-1414.1 412.23,-1620.12 392.96,-166.34 950.99,269.01 414.44,564.92 -201.98,130.12 -493.86,-99.41 -614.66,51.3 -55.94,69.8 -86.92,167.04 -84.7,268.47 78.96,720.27 837.25,1413.72 1129.59,1661.6 2881.57,2170.09 2890.2,2676.53 2720.2,3318.53zm-523.34 -53.39c-22.16,515.76 -555.32,614.34 -819.76,144.95 -94.11,-167 -114.55,-226.99 -117.31,-420.14 -5.61,-395.25 82.13,-778.55 223.87,-975.63 211.74,159.53 382.06,492.83 544.64,735.48 106.24,158.65 176.61,327.24 168.56,515.34z"/>
   <path fill="#FEFEFE" d="M1664.65 2453.46l1735.83 2.8c1506.54,-55.4 1661.71,1414.46 478.89,1660.99 315.31,46.13 617.96,174.38 810.03,436.74l103.93 -174.8c18.13,-30.48 57.66,-40.21 87.73,-21.8l0.18 0.14c30.08,18.4 40.03,58.43 21.94,88.86l-1688.03 2838.61c-18.09,30.44 -57.62,40.16 -87.69,21.75l-0.18 -0.13c-30.08,-18.41 -40.03,-58.43 -21.94,-88.83l753.18 -1266.62 -2184.06 22.89c-170.5,0.45 -122.38,-130.52 -40.93,-137.04l230.47 -18.49c181.22,-3.8 195.78,-232.51 207.81,-375.64l-14.61 -2601.99c-4.84,-141.24 -93.3,-224.36 -230.19,-228.3l-184.43 -5.29c-114.15,8.01 -78.83,-162.13 22.07,-153.85zm1232.88 214.82l2.04 1363.85c1090.42,157.16 1271.01,-1434.63 -2.04,-1363.85zm-10.85 1577.77l2.03 1292.04c0.09,86.51 49.48,178.91 142.28,200.57 1064.92,163.9 1321.98,-1582.43 -144.31,-1492.61z"/>
   <path fill="#FEFEFE" d="M4571.45 4112.72l901.61 -1446.57c13.66,-21.89 42.65,-28.45 64.36,-14.65 21.84,13.88 28.53,43.19 14.88,65.08l-612.53 982.74 1997.5 18.86 -1993.52 3263.18 1120.81 -6.24c450.76,-121.25 771.91,-325.67 843.09,-648.9 22.16,-100.8 38.44,-109.49 55.58,-217.44 27.23,-171.36 158.88,-155.75 170.05,-136.13l-98.05 1215.97 -3189.37 -4.61 1996.6 -3270.14 -915.58 15.51 -9.23 27.86 -133.5 -8.23 -133.46 214.09c-13.66,21.94 -42.7,28.5 -64.49,14.61 -21.71,-13.79 -28.41,-43.1 -14.75,-64.99z"/>
  </g>
 </g>
</svg>
